[PACKET]
codec_type=audio
stream_index=4
pts=7020
pts_time=0.078000
dts=7020
dts_time=0.078000
duration=2880
duration_time=0.032000
convergence_duration=N/A
convergence_duration_time=N/A
size=2560
pos=11468
flags=K
[/PACKET]
[PACKET]
codec_type=video
stream_index=0
pts=7500
pts_time=0.083333
dts=0
dts_time=0.000000
duration=3750
duration_time=0.041667
convergence_duration=N/A
convergence_duration_time=N/A
size=1860
pos=564
flags=K
[/PACKET]
[PACKET]
codec_type=video
stream_index=1
pts=7500
pts_time=0.083333
dts=0
dts_time=0.000000
duration=3750
duration_time=0.041667
convergence_duration=N/A
convergence_duration_time=N/A
size=1860
pos=3008
flags=K
[/PACKET]
[PACKET]
codec_type=video
stream_index=2
pts=7500
pts_time=0.083333
dts=0
dts_time=0.000000
duration=3750
duration_time=0.041667
convergence_duration=N/A
convergence_duration_time=N/A
size=1860
pos=5452
flags=K
[/PACKET]
[PACKET]
codec_type=video
stream_index=3
pts=7500
pts_time=0.083333
dts=0
dts_time=0.000000
duration=3750
duration_time=0.041667
convergence_duration=N/A
convergence_duration_time=N/A
size=1860
pos=7896
flags=K
[/PACKET]
[PACKET]
codec_type=audio
stream_index=4
pts=9900
pts_time=0.110000
dts=9900
dts_time=0.110000
duration=2880
duration_time=0.032000
convergence_duration=N/A
convergence_duration_time=N/A
size=2560
pos=15980
flags=K
[/PACKET]
[PACKET]
codec_type=video
stream_index=0
pts=22500
pts_time=0.250000
dts=3750
dts_time=0.041667
duration=3750
duration_time=0.041667
convergence_duration=N/A
convergence_duration_time=N/A
size=283
pos=9964
flags=_
[/PACKET]
[PACKET]
codec_type=video
stream_index=1
pts=22500
pts_time=0.250000
dts=3750
dts_time=0.041667
duration=3750
duration_time=0.041667
convergence_duration=N/A
convergence_duration_time=N/A
size=283
pos=10340
flags=_
[/PACKET]
[PACKET]
codec_type=video
stream_index=2
pts=22500
pts_time=0.250000
dts=3750
dts_time=0.041667
duration=3750
duration_time=0.041667
convergence_duration=N/A
convergence_duration_time=N/A
size=283
pos=10716
flags=_
[/PACKET]
[PACKET]
codec_type=video
stream_index=3
pts=22500
pts_time=0.250000
dts=3750
dts_time=0.041667
duration=3750
duration_time=0.041667
convergence_duration=N/A
convergence_duration_time=N/A
size=283
pos=11092
flags=_
[/PACKET]
[PACKET]
codec_type=audio
stream_index=4
pts=12780
pts_time=0.142000
dts=12780
dts_time=0.142000
duration=2880
duration_time=0.032000
convergence_duration=N/A
convergence_duration_time=N/A
size=2560
pos=20116
flags=K
[/PACKET]
[PACKET]
codec_type=video
stream_index=0
pts=15000
pts_time=0.166667
dts=7500
dts_time=0.083333
duration=3750
duration_time=0.041667
convergence_duration=N/A
convergence_duration_time=N/A
size=237
pos=14100
flags=_
[/PACKET]
[PACKET]
codec_type=video
stream_index=1
pts=15000
pts_time=0.166667
dts=7500
dts_time=0.083333
duration=3750
duration_time=0.041667
convergence_duration=N/A
convergence_duration_time=N/A
size=237
pos=14476
flags=_
[/PACKET]
[PACKET]
codec_type=video
stream_index=2
pts=15000
pts_time=0.166667
dts=7500
dts_time=0.083333
duration=3750
duration_time=0.041667
convergence_duration=N/A
convergence_duration_time=N/A
size=237
pos=14852
flags=_
[/PACKET]
[PACKET]
codec_type=video
stream_index=3
pts=15000
pts_time=0.166667
dts=7500
dts_time=0.083333
duration=3750
duration_time=0.041667
convergence_duration=N/A
convergence_duration_time=N/A
size=237
pos=15228
flags=_
[/PACKET]
[PACKET]
codec_type=audio
stream_index=4
pts=15660
pts_time=0.174000
dts=15660
dts_time=0.174000
duration=2880
duration_time=0.032000
convergence_duration=N/A
convergence_duration_time=N/A
size=2560
pos=24628
flags=K
[/PACKET]
[PACKET]
codec_type=audio
stream_index=4
pts=18540
pts_time=0.206000
dts=18540
dts_time=0.206000
duration=2880
duration_time=0.032000
convergence_duration=N/A
convergence_duration_time=N/A
size=2560
pos=27260
flags=K
[/PACKET]
[PACKET]
codec_type=video
stream_index=0
pts=11250
pts_time=0.125000
dts=11250
dts_time=0.125000
duration=3750
duration_time=0.041667
convergence_duration=N/A
convergence_duration_time=N/A
size=225
pos=18612
flags=_
[/PACKET]
[PACKET]
codec_type=video
stream_index=1
pts=11250
pts_time=0.125000
dts=11250
dts_time=0.125000
duration=3750
duration_time=0.041667
convergence_duration=N/A
convergence_duration_time=N/A
size=225
pos=18988
flags=_
[/PACKET]
[PACKET]
codec_type=video
stream_index=2
pts=11250
pts_time=0.125000
dts=11250
dts_time=0.125000
duration=3750
duration_time=0.041667
convergence_duration=N/A
convergence_duration_time=N/A
size=225
pos=19364
flags=_
[/PACKET]
[PACKET]
codec_type=video
stream_index=3
pts=11250
pts_time=0.125000
dts=11250
dts_time=0.125000
duration=3750
duration_time=0.041667
convergence_duration=N/A
convergence_duration_time=N/A
size=225
pos=19740
flags=_
[/PACKET]
[PACKET]
codec_type=audio
stream_index=4
pts=21420
pts_time=0.238000
dts=21420
dts_time=0.238000
duration=2880
duration_time=0.032000
convergence_duration=N/A
convergence_duration_time=N/A
size=2560
pos=31772
flags=K
[/PACKET]
[PACKET]
codec_type=video
stream_index=0
pts=18750
pts_time=0.208333
dts=15000
dts_time=0.166667
duration=3750
duration_time=0.041667
convergence_duration=N/A
convergence_duration_time=N/A
size=225
pos=22748
flags=_
[/PACKET]
[PACKET]
codec_type=video
stream_index=1
pts=18750
pts_time=0.208333
dts=15000
dts_time=0.166667
duration=3750
duration_time=0.041667
convergence_duration=N/A
convergence_duration_time=N/A
size=225
pos=23124
flags=_
[/PACKET]
[PACKET]
codec_type=video
stream_index=2
pts=18750
pts_time=0.208333
dts=15000
dts_time=0.166667
duration=3750
duration_time=0.041667
convergence_duration=N/A
convergence_duration_time=N/A
size=225
pos=23876
flags=_
[/PACKET]
[PACKET]
codec_type=video
stream_index=3
pts=18750
pts_time=0.208333
dts=15000
dts_time=0.166667
duration=3750
duration_time=0.041667
convergence_duration=N/A
convergence_duration_time=N/A
size=225
pos=24252
flags=_
[/PACKET]
[PACKET]
codec_type=audio
stream_index=4
pts=24300
pts_time=0.270000
dts=24300
dts_time=0.270000
duration=2880
duration_time=0.032000
convergence_duration=N/A
convergence_duration_time=N/A
size=2560
pos=35908
flags=K
[/PACKET]
[PACKET]
codec_type=video
stream_index=2
pts=15000
pts_time=0.166667
dts=7500
dts_time=0.083333
duration=3750
duration_time=0.041667
convergence_duration=N/A
convergence_duration_time=N/A
size=237
pos=14852
flags=_
[/PACKET]
[PACKET]
codec_type=video
stream_index=0
pts=37500
pts_time=0.416667
dts=18750
dts_time=0.208333
duration=3750
duration_time=0.041667
convergence_duration=N/A
convergence_duration_time=N/A
size=296
pos=29892
flags=_
[/PACKET]
[PACKET]
codec_type=video
stream_index=1
pts=37500
pts_time=0.416667
dts=18750
dts_time=0.208333
duration=3750
duration_time=0.041667
convergence_duration=N/A
convergence_duration_time=N/A
size=296
pos=30268
flags=_
[/PACKET]
[PACKET]
codec_type=video
stream_index=2
pts=37500
pts_time=0.416667
dts=18750
dts_time=0.208333
duration=3750
duration_time=0.041667
convergence_duration=N/A
convergence_duration_time=N/A
size=296
pos=30644
flags=_
[/PACKET]
[PACKET]
codec_type=video
stream_index=3
pts=37500
pts_time=0.416667
dts=18750
dts_time=0.208333
duration=3750
duration_time=0.041667
convergence_duration=N/A
convergence_duration_time=N/A
size=296
pos=31020
flags=_
[/PACKET]
[PACKET]
codec_type=audio
stream_index=4
pts=27180
pts_time=0.302000
dts=27180
dts_time=0.302000
duration=2880
duration_time=0.032000
convergence_duration=N/A
convergence_duration_time=N/A
size=2560
pos=40420
flags=K
[/PACKET]
[PACKET]
codec_type=video
stream_index=0
pts=30000
pts_time=0.333333
dts=22500
dts_time=0.250000
duration=3750
duration_time=0.041667
convergence_duration=N/A
convergence_duration_time=N/A
size=261
pos=34404
flags=_
[/PACKET]
[PACKET]
codec_type=video
stream_index=1
pts=30000
pts_time=0.333333
dts=22500
dts_time=0.250000
duration=3750
duration_time=0.041667
convergence_duration=N/A
convergence_duration_time=N/A
size=261
pos=34780
flags=_
[/PACKET]
[PACKET]
codec_type=video
stream_index=2
pts=30000
pts_time=0.333333
dts=22500
dts_time=0.250000
duration=3750
duration_time=0.041667
convergence_duration=N/A
convergence_duration_time=N/A
size=261
pos=35156
flags=_
[/PACKET]
[PACKET]
codec_type=video
stream_index=3
pts=30000
pts_time=0.333333
dts=22500
dts_time=0.250000
duration=3750
duration_time=0.041667
convergence_duration=N/A
convergence_duration_time=N/A
size=261
pos=35532
flags=_
[/PACKET]
[PACKET]
codec_type=audio
stream_index=4
pts=30060
pts_time=0.334000
dts=30060
dts_time=0.334000
duration=2880
duration_time=0.032000
convergence_duration=N/A
convergence_duration_time=N/A
size=2560
pos=44744
flags=K
[/PACKET]
[PACKET]
codec_type=audio
stream_index=4
pts=32940
pts_time=0.366000
dts=32940
dts_time=0.366000
duration=2880
duration_time=0.032000
convergence_duration=N/A
convergence_duration_time=N/A
size=2560
pos=47752
flags=K
[/PACKET]
[PACKET]
codec_type=video
stream_index=0
pts=26250
pts_time=0.291667
dts=26250
dts_time=0.291667
duration=3750
duration_time=0.041667
convergence_duration=N/A
convergence_duration_time=N/A
size=235
pos=38540
flags=_
[/PACKET]
[PACKET]
codec_type=video
stream_index=1
pts=26250
pts_time=0.291667
dts=26250
dts_time=0.291667
duration=3750
duration_time=0.041667
convergence_duration=N/A
convergence_duration_time=N/A
size=235
pos=38916
flags=_
[/PACKET]
[PACKET]
codec_type=video
stream_index=2
pts=26250
pts_time=0.291667
dts=26250
dts_time=0.291667
duration=3750
duration_time=0.041667
convergence_duration=N/A
convergence_duration_time=N/A
size=235
pos=39668
flags=_
[/PACKET]
[PACKET]
codec_type=video
stream_index=3
pts=26250
pts_time=0.291667
dts=26250
dts_time=0.291667
duration=3750
duration_time=0.041667
convergence_duration=N/A
convergence_duration_time=N/A
size=235
pos=40044
flags=_
[/PACKET]
[PACKET]
codec_type=audio
stream_index=4
pts=35820
pts_time=0.398000
dts=35820
dts_time=0.398000
duration=2880
duration_time=0.032000
convergence_duration=N/A
convergence_duration_time=N/A
size=2560
pos=51888
flags=K
[/PACKET]
[PACKET]
codec_type=video
stream_index=0
pts=33750
pts_time=0.375000
dts=30000
dts_time=0.333333
duration=3750
duration_time=0.041667
convergence_duration=N/A
convergence_duration_time=N/A
size=235
pos=43240
flags=_
[/PACKET]
[PACKET]
codec_type=video
stream_index=1
pts=33750
pts_time=0.375000
dts=30000
dts_time=0.333333
duration=3750
duration_time=0.041667
convergence_duration=N/A
convergence_duration_time=N/A
size=235
pos=43616
flags=_
[/PACKET]
[PACKET]
codec_type=video
stream_index=2
pts=33750
pts_time=0.375000
dts=30000
dts_time=0.333333
duration=3750
duration_time=0.041667
convergence_duration=N/A
convergence_duration_time=N/A
size=235
pos=43992
flags=_
[/PACKET]
[PACKET]
codec_type=video
stream_index=3
pts=33750
pts_time=0.375000
dts=30000
dts_time=0.333333
duration=3750
duration_time=0.041667
convergence_duration=N/A
convergence_duration_time=N/A
size=235
pos=44368
flags=_
[/PACKET]
[PACKET]
codec_type=audio
stream_index=4
pts=38700
pts_time=0.430000
dts=38700
dts_time=0.430000
duration=2880
duration_time=0.032000
convergence_duration=N/A
convergence_duration_time=N/A
size=2560
pos=56400
flags=K
[/PACKET]
[PACKET]
codec_type=video
stream_index=0
pts=52500
pts_time=0.583333
dts=33750
dts_time=0.375000
duration=3750
duration_time=0.041667
convergence_duration=N/A
convergence_duration_time=N/A
size=296
pos=50384
flags=_
[/PACKET]
[PACKET]
codec_type=video
stream_index=1
pts=52500
pts_time=0.583333
dts=33750
dts_time=0.375000
duration=3750
duration_time=0.041667
convergence_duration=N/A
convergence_duration_time=N/A
size=296
pos=50760
flags=_
[/PACKET]
[PACKET]
codec_type=video
stream_index=2
pts=52500
pts_time=0.583333
dts=33750
dts_time=0.375000
duration=3750
duration_time=0.041667
convergence_duration=N/A
convergence_duration_time=N/A
size=296
pos=51136
flags=_
[/PACKET]
[PACKET]
codec_type=video
stream_index=3
pts=52500
pts_time=0.583333
dts=33750
dts_time=0.375000
duration=3750
duration_time=0.041667
convergence_duration=N/A
convergence_duration_time=N/A
size=296
pos=51512
flags=_
[/PACKET]
[PACKET]
codec_type=audio
stream_index=4
pts=41580
pts_time=0.462000
dts=41580
dts_time=0.462000
duration=2880
duration_time=0.032000
convergence_duration=N/A
convergence_duration_time=N/A
size=2560
pos=60536
flags=K
[/PACKET]
[PACKET]
codec_type=audio
stream_index=4
pts=44460
pts_time=0.494000
dts=44460
dts_time=0.494000
duration=2880
duration_time=0.032000
convergence_duration=N/A
convergence_duration_time=N/A
size=2560
pos=63544
flags=K
[/PACKET]
[PACKET]
codec_type=video
stream_index=0
pts=45000
pts_time=0.500000
dts=37500
dts_time=0.416667
duration=3750
duration_time=0.041667
convergence_duration=N/A
convergence_duration_time=N/A
size=263
pos=54520
flags=_
[/PACKET]
[PACKET]
codec_type=video
stream_index=1
pts=45000
pts_time=0.500000
dts=37500
dts_time=0.416667
duration=3750
duration_time=0.041667
convergence_duration=N/A
convergence_duration_time=N/A
size=263
pos=54896
flags=_
[/PACKET]
[PACKET]
codec_type=video
stream_index=2
pts=45000
pts_time=0.500000
dts=37500
dts_time=0.416667
duration=3750
duration_time=0.041667
convergence_duration=N/A
convergence_duration_time=N/A
size=263
pos=55648
flags=_
[/PACKET]
[PACKET]
codec_type=video
stream_index=3
pts=45000
pts_time=0.500000
dts=37500
dts_time=0.416667
duration=3750
duration_time=0.041667
convergence_duration=N/A
convergence_duration_time=N/A
size=263
pos=56024
flags=_
[/PACKET]
[PACKET]
codec_type=audio
stream_index=4
pts=47340
pts_time=0.526000
dts=47340
dts_time=0.526000
duration=2880
duration_time=0.032000
convergence_duration=N/A
convergence_duration_time=N/A
size=2560
pos=67680
flags=K
[/PACKET]
[PACKET]
codec_type=video
stream_index=0
pts=41250
pts_time=0.458333
dts=41250
dts_time=0.458333
duration=3750
duration_time=0.041667
convergence_duration=N/A
convergence_duration_time=N/A
size=237
pos=59032
flags=_
[/PACKET]
[PACKET]
codec_type=video
stream_index=1
pts=41250
pts_time=0.458333
dts=41250
dts_time=0.458333
duration=3750
duration_time=0.041667
convergence_duration=N/A
convergence_duration_time=N/A
size=237
pos=59408
flags=_
[/PACKET]
[PACKET]
codec_type=video
stream_index=2
pts=41250
pts_time=0.458333
dts=41250
dts_time=0.458333
duration=3750
duration_time=0.041667
convergence_duration=N/A
convergence_duration_time=N/A
size=237
pos=59784
flags=_
[/PACKET]
[PACKET]
codec_type=video
stream_index=3
pts=41250
pts_time=0.458333
dts=41250
dts_time=0.458333
duration=3750
duration_time=0.041667
convergence_duration=N/A
convergence_duration_time=N/A
size=237
pos=60160
flags=_
[/PACKET]
[PACKET]
codec_type=audio
stream_index=4
pts=50220
pts_time=0.558000
dts=50220
dts_time=0.558000
duration=2880
duration_time=0.032000
convergence_duration=N/A
convergence_duration_time=N/A
size=2560
pos=72192
flags=K
[/PACKET]
[PACKET]
codec_type=video
stream_index=0
pts=48750
pts_time=0.541667
dts=45000
dts_time=0.500000
duration=3750
duration_time=0.041667
convergence_duration=N/A
convergence_duration_time=N/A
size=237
pos=66176
flags=_
[/PACKET]
[PACKET]
codec_type=video
stream_index=1
pts=48750
pts_time=0.541667
dts=45000
dts_time=0.500000
duration=3750
duration_time=0.041667
convergence_duration=N/A
convergence_duration_time=N/A
size=237
pos=66552
flags=_
[/PACKET]
[PACKET]
codec_type=video
stream_index=2
pts=48750
pts_time=0.541667
dts=45000
dts_time=0.500000
duration=3750
duration_time=0.041667
convergence_duration=N/A
convergence_duration_time=N/A
size=237
pos=66928
flags=_
[/PACKET]
[PACKET]
codec_type=video
stream_index=3
pts=48750
pts_time=0.541667
dts=45000
dts_time=0.500000
duration=3750
duration_time=0.041667
convergence_duration=N/A
convergence_duration_time=N/A
size=237
pos=67304
flags=_
[/PACKET]
[PACKET]
codec_type=audio
stream_index=4
pts=53100
pts_time=0.590000
dts=53100
dts_time=0.590000
duration=2880
duration_time=0.032000
convergence_duration=N/A
convergence_duration_time=N/A
size=2560
pos=76328
flags=K
[/PACKET]
[PACKET]
codec_type=audio
stream_index=4
pts=55980
pts_time=0.622000
dts=55980
dts_time=0.622000
duration=2880
duration_time=0.032000
convergence_duration=N/A
convergence_duration_time=N/A
size=2560
pos=79336
flags=K
[/PACKET]
[PACKET]
codec_type=video
stream_index=0
pts=67500
pts_time=0.750000
dts=48750
dts_time=0.541667
duration=3750
duration_time=0.041667
convergence_duration=N/A
convergence_duration_time=N/A
size=296
pos=70312
flags=_
[/PACKET]
[PACKET]
codec_type=video
stream_index=1
pts=67500
pts_time=0.750000
dts=48750
dts_time=0.541667
duration=3750
duration_time=0.041667
convergence_duration=N/A
convergence_duration_time=N/A
size=296
pos=70688
flags=_
[/PACKET]
[PACKET]
codec_type=video
stream_index=2
pts=67500
pts_time=0.750000
dts=48750
dts_time=0.541667
duration=3750
duration_time=0.041667
convergence_duration=N/A
convergence_duration_time=N/A
size=296
pos=71440
flags=_
[/PACKET]
[PACKET]
codec_type=video
stream_index=3
pts=67500
pts_time=0.750000
dts=48750
dts_time=0.541667
duration=3750
duration_time=0.041667
convergence_duration=N/A
convergence_duration_time=N/A
size=296
pos=71816
flags=_
[/PACKET]
[PACKET]
codec_type=audio
stream_index=4
pts=58860
pts_time=0.654000
dts=58860
dts_time=0.654000
duration=2880
duration_time=0.032000
convergence_duration=N/A
convergence_duration_time=N/A
size=2560
pos=83660
flags=K
[/PACKET]
[PACKET]
codec_type=video
stream_index=0
pts=60000
pts_time=0.666667
dts=52500
dts_time=0.583333
duration=3750
duration_time=0.041667
convergence_duration=N/A
convergence_duration_time=N/A
size=263
pos=74824
flags=_
[/PACKET]
[PACKET]
codec_type=video
stream_index=1
pts=60000
pts_time=0.666667
dts=52500
dts_time=0.583333
duration=3750
duration_time=0.041667
convergence_duration=N/A
convergence_duration_time=N/A
size=263
pos=75200
flags=_
[/PACKET]
[PACKET]
codec_type=video
stream_index=2
pts=60000
pts_time=0.666667
dts=52500
dts_time=0.583333
duration=3750
duration_time=0.041667
convergence_duration=N/A
convergence_duration_time=N/A
size=263
pos=75576
flags=_
[/PACKET]
[PACKET]
codec_type=video
stream_index=3
pts=60000
pts_time=0.666667
dts=52500
dts_time=0.583333
duration=3750
duration_time=0.041667
convergence_duration=N/A
convergence_duration_time=N/A
size=263
pos=75952
flags=_
[/PACKET]
[PACKET]
codec_type=audio
stream_index=4
pts=61740
pts_time=0.686000
dts=61740
dts_time=0.686000
duration=2880
duration_time=0.032000
convergence_duration=N/A
convergence_duration_time=N/A
size=2560
pos=88172
flags=K
[/PACKET]
[PACKET]
codec_type=video
stream_index=0
pts=56250
pts_time=0.625000
dts=56250
dts_time=0.625000
duration=3750
duration_time=0.041667
convergence_duration=N/A
convergence_duration_time=N/A
size=237
pos=82156
flags=_
[/PACKET]
[PACKET]
codec_type=video
stream_index=1
pts=56250
pts_time=0.625000
dts=56250
dts_time=0.625000
duration=3750
duration_time=0.041667
convergence_duration=N/A
convergence_duration_time=N/A
size=237
pos=82532
flags=_
[/PACKET]
[PACKET]
codec_type=video
stream_index=2
pts=56250
pts_time=0.625000
dts=56250
dts_time=0.625000
duration=3750
duration_time=0.041667
convergence_duration=N/A
convergence_duration_time=N/A
size=237
pos=82908
flags=_
[/PACKET]
[PACKET]
codec_type=video
stream_index=3
pts=56250
pts_time=0.625000
dts=56250
dts_time=0.625000
duration=3750
duration_time=0.041667
convergence_duration=N/A
convergence_duration_time=N/A
size=237
pos=83284
flags=_
[/PACKET]
[PACKET]
codec_type=audio
stream_index=4
pts=64620
pts_time=0.718000
dts=64620
dts_time=0.718000
duration=2880
duration_time=0.032000
convergence_duration=N/A
convergence_duration_time=N/A
size=2560
pos=92308
flags=K
[/PACKET]
[PACKET]
codec_type=video
stream_index=0
pts=63750
pts_time=0.708333
dts=60000
dts_time=0.666667
duration=3750
duration_time=0.041667
convergence_duration=N/A
convergence_duration_time=N/A
size=237
pos=86292
flags=_
[/PACKET]
[PACKET]
codec_type=video
stream_index=1
pts=63750
pts_time=0.708333
dts=60000
dts_time=0.666667
duration=3750
duration_time=0.041667
convergence_duration=N/A
convergence_duration_time=N/A
size=237
pos=86668
flags=_
[/PACKET]
[PACKET]
codec_type=video
stream_index=2
pts=63750
pts_time=0.708333
dts=60000
dts_time=0.666667
duration=3750
duration_time=0.041667
convergence_duration=N/A
convergence_duration_time=N/A
size=237
pos=87420
flags=_
[/PACKET]
[PACKET]
codec_type=video
stream_index=3
pts=63750
pts_time=0.708333
dts=60000
dts_time=0.666667
duration=3750
duration_time=0.041667
convergence_duration=N/A
convergence_duration_time=N/A
size=237
pos=87796
flags=_
[/PACKET]
[PACKET]
codec_type=audio
stream_index=4
pts=67500
pts_time=0.750000
dts=67500
dts_time=0.750000
duration=2880
duration_time=0.032000
convergence_duration=N/A
convergence_duration_time=N/A
size=2560
pos=96820
flags=K
[/PACKET]
[PACKET]
codec_type=audio
stream_index=4
pts=70380
pts_time=0.782000
dts=70380
dts_time=0.782000
duration=2880
duration_time=0.032000
convergence_duration=N/A
convergence_duration_time=N/A
size=2560
pos=99452
flags=K
[/PACKET]
[PACKET]
codec_type=video
stream_index=0
pts=82500
pts_time=0.916667
dts=63750
dts_time=0.708333
duration=3750
duration_time=0.041667
convergence_duration=N/A
convergence_duration_time=N/A
size=296
pos=90804
flags=_
[/PACKET]
[PACKET]
codec_type=video
stream_index=1
pts=82500
pts_time=0.916667
dts=63750
dts_time=0.708333
duration=3750
duration_time=0.041667
convergence_duration=N/A
convergence_duration_time=N/A
size=296
pos=91180
flags=_
[/PACKET]
[PACKET]
codec_type=video
stream_index=2
pts=82500
pts_time=0.916667
dts=63750
dts_time=0.708333
duration=3750
duration_time=0.041667
convergence_duration=N/A
convergence_duration_time=N/A
size=296
pos=91556
flags=_
[/PACKET]
[PACKET]
codec_type=video
stream_index=3
pts=82500
pts_time=0.916667
dts=63750
dts_time=0.708333
duration=3750
duration_time=0.041667
convergence_duration=N/A
convergence_duration_time=N/A
size=296
pos=91932
flags=_
[/PACKET]
[PACKET]
codec_type=audio
stream_index=4
pts=73260
pts_time=0.814000
dts=73260
dts_time=0.814000
duration=2880
duration_time=0.032000
convergence_duration=N/A
convergence_duration_time=N/A
size=2560
pos=103964
flags=K
[/PACKET]
[PACKET]
codec_type=video
stream_index=0
pts=75000
pts_time=0.833333
dts=67500
dts_time=0.750000
duration=3750
duration_time=0.041667
convergence_duration=N/A
convergence_duration_time=N/A
size=263
pos=95316
flags=_
[/PACKET]
[PACKET]
codec_type=video
stream_index=1
pts=75000
pts_time=0.833333
dts=67500
dts_time=0.750000
duration=3750
duration_time=0.041667
convergence_duration=N/A
convergence_duration_time=N/A
size=263
pos=95692
flags=_
[/PACKET]
[PACKET]
codec_type=video
stream_index=2
pts=75000
pts_time=0.833333
dts=67500
dts_time=0.750000
duration=3750
duration_time=0.041667
convergence_duration=N/A
convergence_duration_time=N/A
size=263
pos=96068
flags=_
[/PACKET]
[PACKET]
codec_type=video
stream_index=3
pts=75000
pts_time=0.833333
dts=67500
dts_time=0.750000
duration=3750
duration_time=0.041667
convergence_duration=N/A
convergence_duration_time=N/A
size=263
pos=96444
flags=_
[/PACKET]
[PACKET]
codec_type=audio
stream_index=4
pts=76140
pts_time=0.846000
dts=76140
dts_time=0.846000
duration=2880
duration_time=0.032000
convergence_duration=N/A
convergence_duration_time=N/A
size=2560
pos=108100
flags=K
[/PACKET]
[PACKET]
codec_type=video
stream_index=0
pts=71250
pts_time=0.791667
dts=71250
dts_time=0.791667
duration=3750
duration_time=0.041667
convergence_duration=N/A
convergence_duration_time=N/A
size=237
pos=102084
flags=_
[/PACKET]
[PACKET]
codec_type=video
stream_index=1
pts=71250
pts_time=0.791667
dts=71250
dts_time=0.791667
duration=3750
duration_time=0.041667
convergence_duration=N/A
convergence_duration_time=N/A
size=237
pos=102460
flags=_
[/PACKET]
[PACKET]
codec_type=video
stream_index=2
pts=71250
pts_time=0.791667
dts=71250
dts_time=0.791667
duration=3750
duration_time=0.041667
convergence_duration=N/A
convergence_duration_time=N/A
size=237
pos=103212
flags=_
[/PACKET]
[PACKET]
codec_type=video
stream_index=3
pts=71250
pts_time=0.791667
dts=71250
dts_time=0.791667
duration=3750
duration_time=0.041667
convergence_duration=N/A
convergence_duration_time=N/A
size=237
pos=103588
flags=_
[/PACKET]
[PACKET]
codec_type=audio
stream_index=4
pts=79020
pts_time=0.878000
dts=79020
dts_time=0.878000
duration=2880
duration_time=0.032000
convergence_duration=N/A
convergence_duration_time=N/A
size=2560
pos=112612
flags=K
[/PACKET]
[PACKET]
codec_type=audio
stream_index=4
pts=81900
pts_time=0.910000
dts=81900
dts_time=0.910000
duration=2880
duration_time=0.032000
convergence_duration=N/A
convergence_duration_time=N/A
size=2560
pos=115244
flags=K
[/PACKET]
[PACKET]
codec_type=video
stream_index=0
pts=78750
pts_time=0.875000
dts=75000
dts_time=0.833333
duration=3750
duration_time=0.041667
convergence_duration=N/A
convergence_duration_time=N/A
size=237
pos=106596
flags=_
[/PACKET]
[PACKET]
codec_type=video
stream_index=1
pts=78750
pts_time=0.875000
dts=75000
dts_time=0.833333
duration=3750
duration_time=0.041667
convergence_duration=N/A
convergence_duration_time=N/A
size=237
pos=106972
flags=_
[/PACKET]
[PACKET]
codec_type=video
stream_index=2
pts=78750
pts_time=0.875000
dts=75000
dts_time=0.833333
duration=3750
duration_time=0.041667
convergence_duration=N/A
convergence_duration_time=N/A
size=237
pos=107348
flags=_
[/PACKET]
[PACKET]
codec_type=video
stream_index=3
pts=78750
pts_time=0.875000
dts=75000
dts_time=0.833333
duration=3750
duration_time=0.041667
convergence_duration=N/A
convergence_duration_time=N/A
size=237
pos=107724
flags=_
[/PACKET]
[PACKET]
codec_type=audio
stream_index=4
pts=84780
pts_time=0.942000
dts=84780
dts_time=0.942000
duration=2880
duration_time=0.032000
convergence_duration=N/A
convergence_duration_time=N/A
size=2560
pos=119756
flags=K
[/PACKET]
[PACKET]
codec_type=video
stream_index=0
pts=97500
pts_time=1.083333
dts=78750
dts_time=0.875000
duration=3750
duration_time=0.041667
convergence_duration=N/A
convergence_duration_time=N/A
size=296
pos=111108
flags=_
[/PACKET]
[PACKET]
codec_type=video
stream_index=1
pts=97500
pts_time=1.083333
dts=78750
dts_time=0.875000
duration=3750
duration_time=0.041667
convergence_duration=N/A
convergence_duration_time=N/A
size=296
pos=111484
flags=_
[/PACKET]
[PACKET]
codec_type=video
stream_index=2
pts=97500
pts_time=1.083333
dts=78750
dts_time=0.875000
duration=3750
duration_time=0.041667
convergence_duration=N/A
convergence_duration_time=N/A
size=296
pos=111860
flags=_
[/PACKET]
[PACKET]
codec_type=video
stream_index=3
pts=97500
pts_time=1.083333
dts=78750
dts_time=0.875000
duration=3750
duration_time=0.041667
convergence_duration=N/A
convergence_duration_time=N/A
size=296
pos=112236
flags=_
[/PACKET]
[PACKET]
codec_type=audio
stream_index=4
pts=87660
pts_time=0.974000
dts=87660
dts_time=0.974000
duration=2880
duration_time=0.032000
convergence_duration=N/A
convergence_duration_time=N/A
size=2560
pos=124080
flags=K
[/PACKET]
[PACKET]
codec_type=video
stream_index=0
pts=90000
pts_time=1.000000
dts=82500
dts_time=0.916667
duration=3750
duration_time=0.041667
convergence_duration=N/A
convergence_duration_time=N/A
size=263
pos=117876
flags=_
[/PACKET]
[PACKET]
codec_type=video
stream_index=1
pts=90000
pts_time=1.000000
dts=82500
dts_time=0.916667
duration=3750
duration_time=0.041667
convergence_duration=N/A
convergence_duration_time=N/A
size=263
pos=118252
flags=_
[/PACKET]
[PACKET]
codec_type=video
stream_index=2
pts=90000
pts_time=1.000000
dts=82500
dts_time=0.916667
duration=3750
duration_time=0.041667
convergence_duration=N/A
convergence_duration_time=N/A
size=263
pos=119004
flags=_
[/PACKET]
[PACKET]
codec_type=video
stream_index=3
pts=90000
pts_time=1.000000
dts=82500
dts_time=0.916667
duration=3750
duration_time=0.041667
convergence_duration=N/A
convergence_duration_time=N/A
size=263
pos=119380
flags=_
[/PACKET]
[PACKET]
codec_type=audio
stream_index=4
pts=90540
pts_time=1.006000
dts=90540
dts_time=1.006000
duration=2880
duration_time=0.032000
convergence_duration=N/A
convergence_duration_time=N/A
size=2560
pos=128592
flags=K
[/PACKET]
[PACKET]
codec_type=audio
stream_index=4
pts=93420
pts_time=1.038000
dts=93420
dts_time=1.038000
duration=2880
duration_time=0.032000
convergence_duration=N/A
convergence_duration_time=N/A
size=2560
pos=131224
flags=K
[/PACKET]
[PACKET]
codec_type=video
stream_index=0
pts=86250
pts_time=0.958333
dts=86250
dts_time=0.958333
duration=3750
duration_time=0.041667
convergence_duration=N/A
convergence_duration_time=N/A
size=237
pos=122576
flags=_
[/PACKET]
[PACKET]
codec_type=video
stream_index=1
pts=86250
pts_time=0.958333
dts=86250
dts_time=0.958333
duration=3750
duration_time=0.041667
convergence_duration=N/A
convergence_duration_time=N/A
size=237
pos=122952
flags=_
[/PACKET]
[PACKET]
codec_type=video
stream_index=2
pts=86250
pts_time=0.958333
dts=86250
dts_time=0.958333
duration=3750
duration_time=0.041667
convergence_duration=N/A
convergence_duration_time=N/A
size=237
pos=123328
flags=_
[/PACKET]
[PACKET]
codec_type=video
stream_index=3
pts=86250
pts_time=0.958333
dts=86250
dts_time=0.958333
duration=3750
duration_time=0.041667
convergence_duration=N/A
convergence_duration_time=N/A
size=237
pos=123704
flags=_
[/PACKET]
[PACKET]
codec_type=audio
stream_index=4
pts=96300
pts_time=1.070000
dts=96300
dts_time=1.070000
duration=2880
duration_time=0.032000
convergence_duration=N/A
convergence_duration_time=N/A
size=2560
pos=135736
flags=K
[/PACKET]
[PACKET]
codec_type=video
stream_index=0
pts=93750
pts_time=1.041667
dts=90000
dts_time=1.000000
duration=3750
duration_time=0.041667
convergence_duration=N/A
convergence_duration_time=N/A
size=237
pos=127088
flags=_
[/PACKET]
[PACKET]
codec_type=video
stream_index=1
pts=93750
pts_time=1.041667
dts=90000
dts_time=1.000000
duration=3750
duration_time=0.041667
convergence_duration=N/A
convergence_duration_time=N/A
size=237
pos=127464
flags=_
[/PACKET]
[PACKET]
codec_type=video
stream_index=2
pts=93750
pts_time=1.041667
dts=90000
dts_time=1.000000
duration=3750
duration_time=0.041667
convergence_duration=N/A
convergence_duration_time=N/A
size=237
pos=127840
flags=_
[/PACKET]
[PACKET]
codec_type=video
stream_index=3
pts=93750
pts_time=1.041667
dts=90000
dts_time=1.000000
duration=3750
duration_time=0.041667
convergence_duration=N/A
convergence_duration_time=N/A
size=237
pos=128216
flags=_
[/PACKET]
[PACKET]
codec_type=audio
stream_index=4
pts=99180
pts_time=1.102000
dts=99180
dts_time=1.102000
duration=2880
duration_time=0.032000
convergence_duration=N/A
convergence_duration_time=N/A
size=2560
pos=139872
flags=K
[/PACKET]
[PACKET]
codec_type=video
stream_index=0
pts=112500
pts_time=1.250000
dts=93750
dts_time=1.041667
duration=3750
duration_time=0.041667
convergence_duration=N/A
convergence_duration_time=N/A
size=296
pos=133856
flags=_
[/PACKET]
[PACKET]
codec_type=video
stream_index=1
pts=112500
pts_time=1.250000
dts=93750
dts_time=1.041667
duration=3750
duration_time=0.041667
convergence_duration=N/A
convergence_duration_time=N/A
size=296
pos=134232
flags=_
[/PACKET]
[PACKET]
codec_type=video
stream_index=2
pts=112500
pts_time=1.250000
dts=93750
dts_time=1.041667
duration=3750
duration_time=0.041667
convergence_duration=N/A
convergence_duration_time=N/A
size=296
pos=134984
flags=_
[/PACKET]
[PACKET]
codec_type=video
stream_index=3
pts=112500
pts_time=1.250000
dts=93750
dts_time=1.041667
duration=3750
duration_time=0.041667
convergence_duration=N/A
convergence_duration_time=N/A
size=296
pos=135360
flags=_
[/PACKET]
[PACKET]
codec_type=audio
stream_index=4
pts=102060
pts_time=1.134000
dts=102060
dts_time=1.134000
duration=2880
duration_time=0.032000
convergence_duration=N/A
convergence_duration_time=N/A
size=2560
pos=144384
flags=K
[/PACKET]
[PACKET]
codec_type=audio
stream_index=4
pts=104940
pts_time=1.166000
dts=104940
dts_time=1.166000
duration=2880
duration_time=0.032000
convergence_duration=N/A
convergence_duration_time=N/A
size=2560
pos=147016
flags=K
[/PACKET]
[PACKET]
codec_type=video
stream_index=0
pts=105000
pts_time=1.166667
dts=97500
dts_time=1.083333
duration=3750
duration_time=0.041667
convergence_duration=N/A
convergence_duration_time=N/A
size=263
pos=138368
flags=_
[/PACKET]
[PACKET]
codec_type=video
stream_index=1
pts=105000
pts_time=1.166667
dts=97500
dts_time=1.083333
duration=3750
duration_time=0.041667
convergence_duration=N/A
convergence_duration_time=N/A
size=263
pos=138744
flags=_
[/PACKET]
[PACKET]
codec_type=video
stream_index=2
pts=105000
pts_time=1.166667
dts=97500
dts_time=1.083333
duration=3750
duration_time=0.041667
convergence_duration=N/A
convergence_duration_time=N/A
size=263
pos=139120
flags=_
[/PACKET]
[PACKET]
codec_type=video
stream_index=3
pts=105000
pts_time=1.166667
dts=97500
dts_time=1.083333
duration=3750
duration_time=0.041667
convergence_duration=N/A
convergence_duration_time=N/A
size=263
pos=139496
flags=_
[/PACKET]
[PACKET]
codec_type=audio
stream_index=4
pts=107820
pts_time=1.198000
dts=107820
dts_time=1.198000
duration=2880
duration_time=0.032000
convergence_duration=N/A
convergence_duration_time=N/A
size=2560
pos=151528
flags=K
[/PACKET]
[PACKET]
codec_type=video
stream_index=0
pts=101250
pts_time=1.125000
dts=101250
dts_time=1.125000
duration=3750
duration_time=0.041667
convergence_duration=N/A
convergence_duration_time=N/A
size=237
pos=142880
flags=_
[/PACKET]
[PACKET]
codec_type=video
stream_index=1
pts=101250
pts_time=1.125000
dts=101250
dts_time=1.125000
duration=3750
duration_time=0.041667
convergence_duration=N/A
convergence_duration_time=N/A
size=237
pos=143256
flags=_
[/PACKET]
[PACKET]
codec_type=video
stream_index=2
pts=101250
pts_time=1.125000
dts=101250
dts_time=1.125000
duration=3750
duration_time=0.041667
convergence_duration=N/A
convergence_duration_time=N/A
size=237
pos=143632
flags=_
[/PACKET]
[PACKET]
codec_type=video
stream_index=3
pts=101250
pts_time=1.125000
dts=101250
dts_time=1.125000
duration=3750
duration_time=0.041667
convergence_duration=N/A
convergence_duration_time=N/A
size=237
pos=144008
flags=_
[/PACKET]
[PACKET]
codec_type=audio
stream_index=4
pts=110700
pts_time=1.230000
dts=110700
dts_time=1.230000
duration=2880
duration_time=0.032000
convergence_duration=N/A
convergence_duration_time=N/A
size=2560
pos=155664
flags=K
[/PACKET]
[PACKET]
codec_type=video
stream_index=0
pts=108750
pts_time=1.208333
dts=105000
dts_time=1.166667
duration=3750
duration_time=0.041667
convergence_duration=N/A
convergence_duration_time=N/A
size=237
pos=149648
flags=_
[/PACKET]
[PACKET]
codec_type=video
stream_index=1
pts=108750
pts_time=1.208333
dts=105000
dts_time=1.166667
duration=3750
duration_time=0.041667
convergence_duration=N/A
convergence_duration_time=N/A
size=237
pos=150024
flags=_
[/PACKET]
[PACKET]
codec_type=video
stream_index=2
pts=108750
pts_time=1.208333
dts=105000
dts_time=1.166667
duration=3750
duration_time=0.041667
convergence_duration=N/A
convergence_duration_time=N/A
size=237
pos=150776
flags=_
[/PACKET]
[PACKET]
codec_type=video
stream_index=3
pts=108750
pts_time=1.208333
dts=105000
dts_time=1.166667
duration=3750
duration_time=0.041667
convergence_duration=N/A
convergence_duration_time=N/A
size=237
pos=151152
flags=_
[/PACKET]
[PACKET]
codec_type=audio
stream_index=4
pts=113580
pts_time=1.262000
dts=113580
dts_time=1.262000
duration=2880
duration_time=0.032000
convergence_duration=N/A
convergence_duration_time=N/A
size=2560
pos=160364
flags=K
[/PACKET]
[PACKET]
codec_type=video
stream_index=0
pts=127500
pts_time=1.416667
dts=108750
dts_time=1.208333
duration=3750
duration_time=0.041667
convergence_duration=N/A
convergence_duration_time=N/A
size=296
pos=154160
flags=_
[/PACKET]
[PACKET]
codec_type=video
stream_index=1
pts=127500
pts_time=1.416667
dts=108750
dts_time=1.208333
duration=3750
duration_time=0.041667
convergence_duration=N/A
convergence_duration_time=N/A
size=296
pos=154536
flags=_
[/PACKET]
[PACKET]
codec_type=video
stream_index=2
pts=127500
pts_time=1.416667
dts=108750
dts_time=1.208333
duration=3750
duration_time=0.041667
convergence_duration=N/A
convergence_duration_time=N/A
size=296
pos=154912
flags=_
[/PACKET]
[PACKET]
codec_type=video
stream_index=3
pts=127500
pts_time=1.416667
dts=108750
dts_time=1.208333
duration=3750
duration_time=0.041667
convergence_duration=N/A
convergence_duration_time=N/A
size=296
pos=155288
flags=_
[/PACKET]
[PACKET]
codec_type=audio
stream_index=4
pts=116460
pts_time=1.294000
dts=116460
dts_time=1.294000
duration=2880
duration_time=0.032000
convergence_duration=N/A
convergence_duration_time=N/A
size=2560
pos=164500
flags=K
[/PACKET]
[PACKET]
codec_type=audio
stream_index=4
pts=119340
pts_time=1.326000
dts=119340
dts_time=1.326000
duration=2880
duration_time=0.032000
convergence_duration=N/A
convergence_duration_time=N/A
size=2560
pos=167508
flags=K
[/PACKET]
[PACKET]
codec_type=video
stream_index=0
pts=120000
pts_time=1.333333
dts=112500
dts_time=1.250000
duration=3750
duration_time=0.041667
convergence_duration=N/A
convergence_duration_time=N/A
size=263
pos=158672
flags=_
[/PACKET]
[PACKET]
codec_type=video
stream_index=1
pts=120000
pts_time=1.333333
dts=112500
dts_time=1.250000
duration=3750
duration_time=0.041667
convergence_duration=N/A
convergence_duration_time=N/A
size=263
pos=159048
flags=_
[/PACKET]
[PACKET]
codec_type=video
stream_index=2
pts=120000
pts_time=1.333333
dts=112500
dts_time=1.250000
duration=3750
duration_time=0.041667
convergence_duration=N/A
convergence_duration_time=N/A
size=263
pos=159424
flags=_
[/PACKET]
[PACKET]
codec_type=video
stream_index=3
pts=120000
pts_time=1.333333
dts=112500
dts_time=1.250000
duration=3750
duration_time=0.041667
convergence_duration=N/A
convergence_duration_time=N/A
size=263
pos=159988
flags=_
[/PACKET]
[PACKET]
codec_type=audio
stream_index=4
pts=122220
pts_time=1.358000
dts=122220
dts_time=1.358000
duration=2880
duration_time=0.032000
convergence_duration=N/A
convergence_duration_time=N/A
size=2560
pos=171644
flags=K
[/PACKET]
[PACKET]
codec_type=video
stream_index=0
pts=116250
pts_time=1.291667
dts=116250
dts_time=1.291667
duration=3750
duration_time=0.041667
convergence_duration=N/A
convergence_duration_time=N/A
size=237
pos=162996
flags=_
[/PACKET]
[PACKET]
codec_type=video
stream_index=1
pts=116250
pts_time=1.291667
dts=116250
dts_time=1.291667
duration=3750
duration_time=0.041667
convergence_duration=N/A
convergence_duration_time=N/A
size=237
pos=163372
flags=_
[/PACKET]
[PACKET]
codec_type=video
stream_index=2
pts=116250
pts_time=1.291667
dts=116250
dts_time=1.291667
duration=3750
duration_time=0.041667
convergence_duration=N/A
convergence_duration_time=N/A
size=237
pos=163748
flags=_
[/PACKET]
[PACKET]
codec_type=video
stream_index=3
pts=116250
pts_time=1.291667
dts=116250
dts_time=1.291667
duration=3750
duration_time=0.041667
convergence_duration=N/A
convergence_duration_time=N/A
size=237
pos=164124
flags=_
[/PACKET]
[PACKET]
codec_type=audio
stream_index=4
pts=125100
pts_time=1.390000
dts=125100
dts_time=1.390000
duration=2880
duration_time=0.032000
convergence_duration=N/A
convergence_duration_time=N/A
size=2560
pos=176156
flags=K
[/PACKET]
[PACKET]
codec_type=video
stream_index=0
pts=123750
pts_time=1.375000
dts=120000
dts_time=1.333333
duration=3750
duration_time=0.041667
convergence_duration=N/A
convergence_duration_time=N/A
size=237
pos=170140
flags=_
[/PACKET]
[PACKET]
codec_type=video
stream_index=1
pts=123750
pts_time=1.375000
dts=120000
dts_time=1.333333
duration=3750
duration_time=0.041667
convergence_duration=N/A
convergence_duration_time=N/A
size=237
pos=170516
flags=_
[/PACKET]
[PACKET]
codec_type=video
stream_index=2
pts=123750
pts_time=1.375000
dts=120000
dts_time=1.333333
duration=3750
duration_time=0.041667
convergence_duration=N/A
convergence_duration_time=N/A
size=237
pos=170892
flags=_
[/PACKET]
[PACKET]
codec_type=video
stream_index=3
pts=123750
pts_time=1.375000
dts=120000
dts_time=1.333333
duration=3750
duration_time=0.041667
convergence_duration=N/A
convergence_duration_time=N/A
size=237
pos=171268
flags=_
[/PACKET]
[PACKET]
codec_type=audio
stream_index=4
pts=127980
pts_time=1.422000
dts=127980
dts_time=1.422000
duration=2880
duration_time=0.032000
convergence_duration=N/A
convergence_duration_time=N/A
size=2560
pos=180292
flags=K
[/PACKET]
[PACKET]
codec_type=audio
stream_index=4
pts=130860
pts_time=1.454000
dts=130860
dts_time=1.454000
duration=2880
duration_time=0.032000
convergence_duration=N/A
convergence_duration_time=N/A
size=2560
pos=183300
flags=K
[/PACKET]
[PACKET]
codec_type=video
stream_index=0
pts=142500
pts_time=1.583333
dts=123750
dts_time=1.375000
duration=3750
duration_time=0.041667
convergence_duration=N/A
convergence_duration_time=N/A
size=296
pos=174652
flags=_
[/PACKET]
[PACKET]
codec_type=video
stream_index=1
pts=142500
pts_time=1.583333
dts=123750
dts_time=1.375000
duration=3750
duration_time=0.041667
convergence_duration=N/A
convergence_duration_time=N/A
size=296
pos=175028
flags=_
[/PACKET]
[PACKET]
codec_type=video
stream_index=2
pts=142500
pts_time=1.583333
dts=123750
dts_time=1.375000
duration=3750
duration_time=0.041667
convergence_duration=N/A
convergence_duration_time=N/A
size=296
pos=175404
flags=_
[/PACKET]
[PACKET]
codec_type=video
stream_index=3
pts=142500
pts_time=1.583333
dts=123750
dts_time=1.375000
duration=3750
duration_time=0.041667
convergence_duration=N/A
convergence_duration_time=N/A
size=296
pos=175780
flags=_
[/PACKET]
[PACKET]
codec_type=audio
stream_index=4
pts=133740
pts_time=1.486000
dts=133740
dts_time=1.486000
duration=2880
duration_time=0.032000
convergence_duration=N/A
convergence_duration_time=N/A
size=2560
pos=187436
flags=K
[/PACKET]
[PACKET]
codec_type=video
stream_index=0
pts=135000
pts_time=1.500000
dts=127500
dts_time=1.416667
duration=3750
duration_time=0.041667
convergence_duration=N/A
convergence_duration_time=N/A
size=263
pos=178788
flags=_
[/PACKET]
[PACKET]
codec_type=video
stream_index=1
pts=135000
pts_time=1.500000
dts=127500
dts_time=1.416667
duration=3750
duration_time=0.041667
convergence_duration=N/A
convergence_duration_time=N/A
size=263
pos=179164
flags=_
[/PACKET]
[PACKET]
codec_type=video
stream_index=2
pts=135000
pts_time=1.500000
dts=127500
dts_time=1.416667
duration=3750
duration_time=0.041667
convergence_duration=N/A
convergence_duration_time=N/A
size=263
pos=179540
flags=_
[/PACKET]
[PACKET]
codec_type=video
stream_index=3
pts=135000
pts_time=1.500000
dts=127500
dts_time=1.416667
duration=3750
duration_time=0.041667
convergence_duration=N/A
convergence_duration_time=N/A
size=263
pos=179916
flags=_
[/PACKET]
[PACKET]
codec_type=audio
stream_index=4
pts=136620
pts_time=1.518000
dts=136620
dts_time=1.518000
duration=2880
duration_time=0.032000
convergence_duration=N/A
convergence_duration_time=N/A
size=2560
pos=191948
flags=K
[/PACKET]
[PACKET]
codec_type=video
stream_index=0
pts=131250
pts_time=1.458333
dts=131250
dts_time=1.458333
duration=3750
duration_time=0.041667
convergence_duration=N/A
convergence_duration_time=N/A
size=237
pos=185932
flags=_
[/PACKET]
[PACKET]
codec_type=video
stream_index=1
pts=131250
pts_time=1.458333
dts=131250
dts_time=1.458333
duration=3750
duration_time=0.041667
convergence_duration=N/A
convergence_duration_time=N/A
size=237
pos=186308
flags=_
[/PACKET]
[PACKET]
codec_type=video
stream_index=2
pts=131250
pts_time=1.458333
dts=131250
dts_time=1.458333
duration=3750
duration_time=0.041667
convergence_duration=N/A
convergence_duration_time=N/A
size=237
pos=186684
flags=_
[/PACKET]
[PACKET]
codec_type=video
stream_index=3
pts=131250
pts_time=1.458333
dts=131250
dts_time=1.458333
duration=3750
duration_time=0.041667
convergence_duration=N/A
convergence_duration_time=N/A
size=237
pos=187060
flags=_
[/PACKET]
[PACKET]
codec_type=audio
stream_index=4
pts=139500
pts_time=1.550000
dts=139500
dts_time=1.550000
duration=2880
duration_time=0.032000
convergence_duration=N/A
convergence_duration_time=N/A
size=2560
pos=201536
flags=K
[/PACKET]
[PACKET]
codec_type=audio
stream_index=4
pts=142380
pts_time=1.582000
dts=142380
dts_time=1.582000
duration=2880
duration_time=0.032000
convergence_duration=N/A
convergence_duration_time=N/A
size=2560
pos=204168
flags=K
[/PACKET]
[PACKET]
codec_type=video
stream_index=0
pts=138750
pts_time=1.541667
dts=135000
dts_time=1.500000
duration=3750
duration_time=0.041667
convergence_duration=N/A
convergence_duration_time=N/A
size=237
pos=190444
flags=_
[/PACKET]
[PACKET]
codec_type=video
stream_index=1
pts=138750
pts_time=1.541667
dts=135000
dts_time=1.500000
duration=3750
duration_time=0.041667
convergence_duration=N/A
convergence_duration_time=N/A
size=237
pos=190820
flags=_
[/PACKET]
[PACKET]
codec_type=video
stream_index=2
pts=138750
pts_time=1.541667
dts=135000
dts_time=1.500000
duration=3750
duration_time=0.041667
convergence_duration=N/A
convergence_duration_time=N/A
size=237
pos=191196
flags=_
[/PACKET]
[PACKET]
codec_type=video
stream_index=3
pts=138750
pts_time=1.541667
dts=135000
dts_time=1.500000
duration=3750
duration_time=0.041667
convergence_duration=N/A
convergence_duration_time=N/A
size=237
pos=191572
flags=_
[/PACKET]
[PACKET]
codec_type=audio
stream_index=4
pts=145260
pts_time=1.614000
dts=145260
dts_time=1.614000
duration=2880
duration_time=0.032000
convergence_duration=N/A
convergence_duration_time=N/A
size=2560
pos=208680
flags=K
[/PACKET]
[PACKET]
codec_type=video
stream_index=0
pts=157500
pts_time=1.750000
dts=138750
dts_time=1.541667
duration=3750
duration_time=0.041667
convergence_duration=N/A
convergence_duration_time=N/A
size=1159
pos=194956
flags=K
[/PACKET]
[PACKET]
codec_type=video
stream_index=1
pts=157500
pts_time=1.750000
dts=138750
dts_time=1.541667
duration=3750
duration_time=0.041667
convergence_duration=N/A
convergence_duration_time=N/A
size=1159
pos=196648
flags=K
[/PACKET]
[PACKET]
codec_type=video
stream_index=2
pts=157500
pts_time=1.750000
dts=138750
dts_time=1.541667
duration=3750
duration_time=0.041667
convergence_duration=N/A
convergence_duration_time=N/A
size=1159
pos=198340
flags=K
[/PACKET]
[PACKET]
codec_type=video
stream_index=3
pts=157500
pts_time=1.750000
dts=138750
dts_time=1.541667
duration=3750
duration_time=0.041667
convergence_duration=N/A
convergence_duration_time=N/A
size=1159
pos=200032
flags=K
[/PACKET]
[PACKET]
codec_type=audio
stream_index=4
pts=148140
pts_time=1.646000
dts=148140
dts_time=1.646000
duration=2880
duration_time=0.032000
convergence_duration=N/A
convergence_duration_time=N/A
size=2560
pos=212816
flags=K
[/PACKET]
[PACKET]
codec_type=video
stream_index=0
pts=150000
pts_time=1.666667
dts=142500
dts_time=1.583333
duration=3750
duration_time=0.041667
convergence_duration=N/A
convergence_duration_time=N/A
size=263
pos=206800
flags=_
[/PACKET]
[PACKET]
codec_type=video
stream_index=1
pts=150000
pts_time=1.666667
dts=142500
dts_time=1.583333
duration=3750
duration_time=0.041667
convergence_duration=N/A
convergence_duration_time=N/A
size=263
pos=207176
flags=_
[/PACKET]
[PACKET]
codec_type=video
stream_index=2
pts=150000
pts_time=1.666667
dts=142500
dts_time=1.583333
duration=3750
duration_time=0.041667
convergence_duration=N/A
convergence_duration_time=N/A
size=263
pos=207552
flags=_
[/PACKET]
[PACKET]
codec_type=video
stream_index=3
pts=150000
pts_time=1.666667
dts=142500
dts_time=1.583333
duration=3750
duration_time=0.041667
convergence_duration=N/A
convergence_duration_time=N/A
size=263
pos=208304
flags=_
[/PACKET]
[PACKET]
codec_type=audio
stream_index=4
pts=151020
pts_time=1.678000
dts=151020
dts_time=1.678000
duration=2880
duration_time=0.032000
convergence_duration=N/A
convergence_duration_time=N/A
size=2560
pos=217328
flags=K
[/PACKET]
[PACKET]
codec_type=video
stream_index=0
pts=146250
pts_time=1.625000
dts=146250
dts_time=1.625000
duration=3750
duration_time=0.041667
convergence_duration=N/A
convergence_duration_time=N/A
size=237
pos=211312
flags=_
[/PACKET]
[PACKET]
codec_type=video
stream_index=1
pts=146250
pts_time=1.625000
dts=146250
dts_time=1.625000
duration=3750
duration_time=0.041667
convergence_duration=N/A
convergence_duration_time=N/A
size=237
pos=211688
flags=_
[/PACKET]
[PACKET]
codec_type=video
stream_index=2
pts=146250
pts_time=1.625000
dts=146250
dts_time=1.625000
duration=3750
duration_time=0.041667
convergence_duration=N/A
convergence_duration_time=N/A
size=237
pos=212064
flags=_
[/PACKET]
[PACKET]
codec_type=video
stream_index=3
pts=146250
pts_time=1.625000
dts=146250
dts_time=1.625000
duration=3750
duration_time=0.041667
convergence_duration=N/A
convergence_duration_time=N/A
size=237
pos=212440
flags=_
[/PACKET]
[PACKET]
codec_type=audio
stream_index=4
pts=153900
pts_time=1.710000
dts=153900
dts_time=1.710000
duration=2880
duration_time=0.032000
convergence_duration=N/A
convergence_duration_time=N/A
size=2560
pos=221464
flags=K
[/PACKET]
[PACKET]
codec_type=audio
stream_index=4
pts=156780
pts_time=1.742000
dts=156780
dts_time=1.742000
duration=2880
duration_time=0.032000
convergence_duration=N/A
convergence_duration_time=N/A
size=2560
pos=224472
flags=K
[/PACKET]
[PACKET]
codec_type=video
stream_index=0
pts=153750
pts_time=1.708333
dts=150000
dts_time=1.666667
duration=3750
duration_time=0.041667
convergence_duration=N/A
convergence_duration_time=N/A
size=237
pos=215448
flags=_
[/PACKET]
[PACKET]
codec_type=video
stream_index=1
pts=153750
pts_time=1.708333
dts=150000
dts_time=1.666667
duration=3750
duration_time=0.041667
convergence_duration=N/A
convergence_duration_time=N/A
size=237
pos=216200
flags=_
[/PACKET]
[PACKET]
codec_type=video
stream_index=2
pts=153750
pts_time=1.708333
dts=150000
dts_time=1.666667
duration=3750
duration_time=0.041667
convergence_duration=N/A
convergence_duration_time=N/A
size=237
pos=216576
flags=_
[/PACKET]
[PACKET]
codec_type=video
stream_index=3
pts=153750
pts_time=1.708333
dts=150000
dts_time=1.666667
duration=3750
duration_time=0.041667
convergence_duration=N/A
convergence_duration_time=N/A
size=237
pos=216952
flags=_
[/PACKET]
[PACKET]
codec_type=audio
stream_index=4
pts=159660
pts_time=1.774000
dts=159660
dts_time=1.774000
duration=2880
duration_time=0.032000
convergence_duration=N/A
convergence_duration_time=N/A
size=2560
pos=228608
flags=K
[/PACKET]
[PACKET]
codec_type=video
stream_index=0
pts=172500
pts_time=1.916667
dts=153750
dts_time=1.708333
duration=3750
duration_time=0.041667
convergence_duration=N/A
convergence_duration_time=N/A
size=316
pos=219960
flags=_
[/PACKET]
[PACKET]
codec_type=video
stream_index=1
pts=172500
pts_time=1.916667
dts=153750
dts_time=1.708333
duration=3750
duration_time=0.041667
convergence_duration=N/A
convergence_duration_time=N/A
size=316
pos=220336
flags=_
[/PACKET]
[PACKET]
codec_type=video
stream_index=2
pts=172500
pts_time=1.916667
dts=153750
dts_time=1.708333
duration=3750
duration_time=0.041667
convergence_duration=N/A
convergence_duration_time=N/A
size=316
pos=220712
flags=_
[/PACKET]
[PACKET]
codec_type=video
stream_index=3
pts=172500
pts_time=1.916667
dts=153750
dts_time=1.708333
duration=3750
duration_time=0.041667
convergence_duration=N/A
convergence_duration_time=N/A
size=316
pos=221088
flags=_
[/PACKET]
[PACKET]
codec_type=audio
stream_index=4
pts=162540
pts_time=1.806000
dts=162540
dts_time=1.806000
duration=2880
duration_time=0.032000
convergence_duration=N/A
convergence_duration_time=N/A
size=2560
pos=233120
flags=K
[/PACKET]
[PACKET]
codec_type=video
stream_index=0
pts=165000
pts_time=1.833333
dts=157500
dts_time=1.750000
duration=3750
duration_time=0.041667
convergence_duration=N/A
convergence_duration_time=N/A
size=238
pos=227104
flags=_
[/PACKET]
[PACKET]
codec_type=video
stream_index=1
pts=165000
pts_time=1.833333
dts=157500
dts_time=1.750000
duration=3750
duration_time=0.041667
convergence_duration=N/A
convergence_duration_time=N/A
size=238
pos=227480
flags=_
[/PACKET]
[PACKET]
codec_type=video
stream_index=0
pts=161250
pts_time=1.791667
dts=161250
dts_time=1.791667
duration=3750
duration_time=0.041667
convergence_duration=N/A
convergence_duration_time=N/A
size=237
pos=231240
flags=_
[/PACKET]
[PACKET]
codec_type=video
stream_index=1
pts=161250
pts_time=1.791667
dts=161250
dts_time=1.791667
duration=3750
duration_time=0.041667
convergence_duration=N/A
convergence_duration_time=N/A
size=237
pos=231992
flags=_
[/PACKET]
[PACKET]
codec_type=video
stream_index=2
pts=165000
pts_time=1.833333
dts=157500
dts_time=1.750000
duration=3750
duration_time=0.041667
convergence_duration=N/A
convergence_duration_time=N/A
size=238
pos=227856
flags=_
[/PACKET]
[PACKET]
codec_type=video
stream_index=3
pts=165000
pts_time=1.833333
dts=157500
dts_time=1.750000
duration=3750
duration_time=0.041667
convergence_duration=N/A
convergence_duration_time=N/A
size=238
pos=228232
flags=_
[/PACKET]
[PACKET]
codec_type=video
stream_index=0
pts=168750
pts_time=1.875000
dts=165000
dts_time=1.833333
duration=3750
duration_time=0.041667
convergence_duration=N/A
convergence_duration_time=N/A
size=237
pos=235752
flags=_
[/PACKET]
[PACKET]
codec_type=video
stream_index=1
pts=168750
pts_time=1.875000
dts=165000
dts_time=1.833333
duration=3750
duration_time=0.041667
convergence_duration=N/A
convergence_duration_time=N/A
size=237
pos=236128
flags=_
[/PACKET]
[PACKET]
codec_type=video
stream_index=2
pts=161250
pts_time=1.791667
dts=161250
dts_time=1.791667
duration=3750
duration_time=0.041667
convergence_duration=N/A
convergence_duration_time=N/A
size=237
pos=232368
flags=_
[/PACKET]
[PACKET]
codec_type=video
stream_index=3
pts=161250
pts_time=1.791667
dts=161250
dts_time=1.791667
duration=3750
duration_time=0.041667
convergence_duration=N/A
convergence_duration_time=N/A
size=237
pos=232744
flags=_
[/PACKET]
